<svg width="40" height="41" viewBox="0 0 40 41" fill="none" xmlns="http://www.w3.org/2000/svg">
<g clip-path="url(#clip0_141_78)">
<path d="M26.6667 30.75C27.5508 30.75 28.3986 31.11 29.0238 31.7507C29.6489 32.3915 30.0001 33.2605 30.0001 34.1667C30.0001 35.0728 29.6489 35.9419 29.0238 36.5826C28.3986 37.2234 27.5508 37.5833 26.6667 37.5833C25.7827 37.5833 24.9348 37.2234 24.3097 36.5826C23.6846 35.9419 23.3334 35.0728 23.3334 34.1667C23.3334 33.2605 23.6846 32.3915 24.3097 31.7507C24.9348 31.11 25.7827 30.75 26.6667 30.75ZM26.6667 32.4583C26.2247 32.4583 25.8008 32.6383 25.4882 32.9587C25.1757 33.2791 25.0001 33.7136 25.0001 34.1667C25.0001 34.6197 25.1757 35.0543 25.4882 35.3746C25.8008 35.695 26.2247 35.875 26.6667 35.875C27.1088 35.875 27.5327 35.695 27.8453 35.3746C28.1578 35.0543 28.3334 34.6197 28.3334 34.1667C28.3334 33.7136 28.1578 33.2791 27.8453 32.9587C27.5327 32.6383 27.1088 32.4583 26.6667 32.4583ZM11.6667 30.75C12.5508 30.75 13.3986 31.11 14.0238 31.7507C14.6489 32.3915 15.0001 33.2605 15.0001 34.1667C15.0001 35.0728 14.6489 35.9419 14.0238 36.5826C13.3986 37.2234 12.5508 37.5833 11.6667 37.5833C10.7827 37.5833 9.93485 37.2234 9.30973 36.5826C8.6846 35.9419 8.33341 35.0728 8.33341 34.1667C8.33341 33.2605 8.6846 32.3915 9.30973 31.7507C9.93485 31.11 10.7827 30.75 11.6667 30.75ZM11.6667 32.4583C11.2247 32.4583 10.8008 32.6383 10.4882 32.9587C10.1757 33.2791 10.0001 33.7136 10.0001 34.1667C10.0001 34.6197 10.1757 35.0543 10.4882 35.3746C10.8008 35.695 11.2247 35.875 11.6667 35.875C12.1088 35.875 12.5327 35.695 12.8453 35.3746C13.1578 35.0543 13.3334 34.6197 13.3334 34.1667C13.3334 33.7136 13.1578 33.2791 12.8453 32.9587C12.5327 32.6383 12.1088 32.4583 11.6667 32.4583ZM30.0001 10.25H7.11675L11.3667 20.5H25.0001C25.5501 20.5 26.0334 20.2267 26.3334 19.8167L31.3334 12.9833C31.5501 12.6929 31.6667 12.3342 31.6667 11.9583C31.6667 11.5053 31.4912 11.0707 31.1786 10.7504C30.866 10.43 30.4421 10.25 30.0001 10.25ZM25.0001 22.2083H11.4501L10.1667 24.8733L10.0001 25.625C10.0001 26.0781 10.1757 26.5126 10.4882 26.833C10.8008 27.1533 11.2247 27.3333 11.6667 27.3333H30.0001V29.0417H11.6667C10.7827 29.0417 9.93485 28.6817 9.30973 28.0409C8.6846 27.4002 8.33341 26.5312 8.33341 25.625C8.33292 25.0454 8.47631 24.4751 8.75008 23.9679L9.95008 21.4567L3.90008 6.83333H1.66675V5.125H5.00008L6.41675 8.54167H30.0001C30.8841 8.54167 31.732 8.90164 32.3571 9.54238C32.9822 10.1831 33.3334 11.0522 33.3334 11.9583C33.3334 12.8125 33.0501 13.53 32.5834 14.1108L27.7334 20.7562C27.1334 21.6275 26.1334 22.2083 25.0001 22.2083Z" fill="#198ADA"/>
<ellipse cx="29" cy="7.5" rx="7" ry="7.5" fill="#198ADA"/>
<path d="M28.544 13.1392C27.8414 13.1392 27.215 13.0099 26.6648 12.7514C26.1179 12.4929 25.6837 12.1366 25.3622 11.6825C25.0407 11.2285 24.8733 10.7081 24.8601 10.1214H26.9482C26.9714 10.5159 27.1371 10.8357 27.4453 11.081C27.7536 11.3262 28.1198 11.4489 28.544 11.4489C28.8821 11.4489 29.1804 11.3743 29.4389 11.2251C29.7008 11.0727 29.9046 10.8622 30.0504 10.5938C30.1996 10.322 30.2741 10.0104 30.2741 9.65909C30.2741 9.30114 30.1979 8.98627 30.0455 8.71449C29.8963 8.44271 29.6892 8.23059 29.424 8.07812C29.1589 7.92566 28.8556 7.84777 28.5142 7.84446C28.2159 7.84446 27.9259 7.90578 27.6442 8.02841C27.3658 8.15104 27.1487 8.31842 26.9929 8.53054L25.0788 8.1875L25.5611 2.81818H31.7855V4.57812H27.3359L27.0724 7.12855H27.1321C27.3111 6.87666 27.5812 6.66785 27.9425 6.50213C28.3037 6.33641 28.7081 6.25355 29.1555 6.25355C29.7687 6.25355 30.3156 6.39773 30.7962 6.68608C31.2768 6.97443 31.6562 7.3705 31.9347 7.87429C32.2131 8.37476 32.3506 8.95147 32.3473 9.6044C32.3506 10.2905 32.1915 10.9003 31.87 11.4339C31.5518 11.9643 31.1061 12.3819 30.5327 12.6868C29.9626 12.9884 29.2997 13.1392 28.544 13.1392Z" fill="white"/>
</g>
<defs>
<clipPath id="clip0_141_78">
<rect width="40" height="41" fill="white"/>
</clipPath>
</defs>
</svg>
